<svg width="30" height="30" viewBox="0 0 30 30" fill="none" xmlns="http://www.w3.org/2000/svg">
<path d="M16.1244 3.75C16.1244 3.45163 16.0059 3.16548 15.7949 2.9545C15.5839 2.74353 15.2978 2.625 14.9994 2.625C14.701 2.625 14.4149 2.74353 14.2039 2.9545C13.9929 3.16548 13.8744 3.45163 13.8744 3.75V12.75C13.8744 13.0484 13.9929 13.3345 14.2039 13.5455C14.4149 13.7565 14.701 13.875 14.9994 13.875C15.2978 13.875 15.5839 13.7565 15.7949 13.5455C16.0059 13.3345 16.1244 13.0484 16.1244 12.75V3.75ZM20.6139 6C20.4857 5.92371 20.3437 5.87366 20.196 5.85276C20.0484 5.83187 19.898 5.84055 19.7537 5.87829C19.6094 5.91603 19.4741 5.98209 19.3556 6.07262C19.237 6.16315 19.1377 6.27634 19.0633 6.40561C18.9889 6.53488 18.941 6.67765 18.9223 6.82561C18.9036 6.97358 18.9145 7.12379 18.9544 7.2675C18.9943 7.41121 19.0623 7.54556 19.1546 7.66273C19.2469 7.7799 19.3615 7.87755 19.4919 7.95C21.2093 8.93853 22.5524 10.4662 23.3129 12.2961C24.0735 14.1259 24.2088 16.1556 23.698 18.0702C23.1872 19.9848 22.0588 21.6773 20.4878 22.8851C18.9169 24.0929 16.9912 24.7485 15.0097 24.7501C13.0281 24.7518 11.1013 24.0994 9.5284 22.8942C7.95544 21.689 6.82421 19.9984 6.3102 18.0847C5.7962 16.1709 5.92816 14.141 6.68561 12.3099C7.44306 10.4788 8.78365 8.94889 10.4994 7.9575C10.6274 7.88363 10.7397 7.78527 10.8297 7.66802C10.9197 7.55078 10.9858 7.41695 11.0241 7.27418C11.0624 7.13141 11.0722 6.98249 11.0529 6.83593C11.0337 6.68937 10.9858 6.54804 10.9119 6.42C10.838 6.29196 10.7397 6.17973 10.6224 6.0897C10.5052 5.99968 10.3714 5.93363 10.2286 5.89532C10.0858 5.85702 9.93689 5.84721 9.79033 5.86646C9.64377 5.88571 9.50244 5.93363 9.3744 6.0075C7.22906 7.24572 5.55235 9.15736 4.60442 11.4458C3.6565 13.7343 3.49035 16.2717 4.13177 18.6642C4.77318 21.0567 6.1863 23.1707 8.15186 24.6781C10.1174 26.1855 12.5255 27.0021 15.0026 27.0011C17.4796 27.0001 19.887 26.1816 21.8514 24.6726C23.8157 23.1637 25.2272 21.0486 25.8667 18.6555C26.5062 16.2624 26.338 13.7252 25.3882 11.4375C24.4385 9.1498 22.7602 7.2395 20.6139 6.003V6Z" fill="current"/>
</svg>
