<svg width="28" height="28" viewBox="0 0 28 28" fill="none" xmlns="http://www.w3.org/2000/svg">
<path d="M14 1.5C7.09625 1.5 1.5 7.09625 1.5 14C1.5 20.9037 7.09625 26.5 14 26.5C20.9037 26.5 26.5 20.9037 26.5 14C26.5 7.09625 20.9037 1.5 14 1.5Z" stroke="current" stroke-width="1.875" stroke-linecap="round" stroke-linejoin="round"/>
<path d="M4.33789 21.9325C4.33789 21.9325 7.12414 18.375 13.9991 18.375C20.8741 18.375 23.6616 21.9325 23.6616 21.9325M13.9991 14C14.9937 14 15.9475 13.6049 16.6508 12.9017C17.3541 12.1984 17.7491 11.2446 17.7491 10.25C17.7491 9.25544 17.3541 8.30161 16.6508 7.59835C15.9475 6.89509 14.9937 6.5 13.9991 6.5C13.0046 6.5 12.0508 6.89509 11.3475 7.59835C10.6442 8.30161 10.2491 9.25544 10.2491 10.25C10.2491 11.2446 10.6442 12.1984 11.3475 12.9017C12.0508 13.6049 13.0046 14 13.9991 14V14Z" stroke="current" stroke-width="1.875" stroke-linecap="round" stroke-linejoin="round"/>
</svg>
