<svg width="40" height="46" viewBox="0 0 40 46" fill="current" xmlns="http://www.w3.org/2000/svg">
<path d="M19.6854 43.9951C20.2104 43.9973 20.6369 44.4326 20.6391 44.9664C20.6415 45.2213 20.5426 45.4667 20.3642 45.6488C20.1858 45.8309 19.9425 45.9348 19.6876 45.9376C19.5612 45.9365 19.4362 45.9105 19.3199 45.861C19.2035 45.8116 19.0981 45.7397 19.0095 45.6496C18.921 45.5594 18.851 45.4526 18.8037 45.3354C18.7564 45.2182 18.7327 45.0928 18.7338 44.9664C18.7327 44.84 18.7564 44.7146 18.8037 44.5974C18.851 44.4802 18.921 44.3734 19.0095 44.2832C19.0981 44.193 19.2035 44.1212 19.3199 44.0718C19.4362 44.0223 19.5612 43.9963 19.6876 43.9951H19.6854ZM0.479122 12.8145C0.258141 12.6824 0.09774 12.4689 0.032312 12.2198C-0.0331159 11.9708 0.00163852 11.706 0.129122 11.4823C0.222714 11.3159 0.364092 11.1814 0.534961 11.0963C0.70583 11.0111 0.898325 10.9792 1.08754 11.0046C1.27675 11.0301 1.45397 11.1117 1.59627 11.239C1.73856 11.3663 1.83938 11.5334 1.88568 11.7186C1.93488 11.9044 1.92858 12.1006 1.86755 12.283C1.80652 12.4653 1.69343 12.6257 1.54225 12.7445C1.39263 12.8617 1.21115 12.9311 1.02149 12.9436C0.831831 12.9561 0.642814 12.9111 0.479122 12.8145ZM0.479122 33.1451C0.587926 33.0821 0.70817 33.0413 0.832873 33.0251C0.957576 33.0089 1.08425 33.0177 1.20555 33.0508C1.32684 33.084 1.44034 33.1409 1.53945 33.2183C1.63855 33.2957 1.7213 33.3921 1.78287 33.5017C1.90946 33.7246 1.94371 33.9881 1.87828 34.2359C1.81286 34.4837 1.65296 34.696 1.43287 34.8273C1.32422 34.891 1.20395 34.9323 1.07912 34.9488C0.954283 34.9653 0.827412 34.9567 0.705954 34.9234C0.584496 34.8902 0.470901 34.8331 0.371843 34.7553C0.272786 34.6776 0.190263 34.5808 0.129122 34.4708C0.00253862 34.2479 -0.0317109 33.9844 0.0337139 33.7366C0.0991387 33.4888 0.259031 33.2765 0.479122 33.1451ZM38.8916 12.8145C38.7828 12.8776 38.6626 12.9184 38.5379 12.9346C38.4132 12.9507 38.2865 12.942 38.1652 12.9088C38.0439 12.8757 37.9304 12.8187 37.8313 12.7413C37.7322 12.6639 37.6494 12.5676 37.5879 12.458C37.4921 12.2907 37.4473 12.0991 37.4589 11.9067C37.4706 11.7144 37.5382 11.5296 37.6535 11.3751C37.7673 11.222 37.9246 11.1067 38.1048 11.0443C38.2851 10.9819 38.48 10.9752 38.6641 11.0251C38.8491 11.0775 39.0147 11.183 39.1402 11.3287C39.2656 11.4744 39.3455 11.6538 39.3697 11.8446C39.394 12.0353 39.3616 12.229 39.2766 12.4015C39.1915 12.5739 39.0577 12.7176 38.8916 12.8145ZM19.6876 1.94264C19.435 1.93634 19.195 1.83095 19.0194 1.64924C18.8438 1.46753 18.7467 1.22406 18.7491 0.971394C18.7491 0.577644 18.9854 0.221082 19.3419 0.072332C19.5176 -0.00076017 19.7113 -0.0189827 19.8975 0.0200601C20.0838 0.0591028 20.2538 0.153583 20.3854 0.291082C20.5184 0.429742 20.6079 0.604285 20.6428 0.793195C20.6778 0.982105 20.6568 1.17712 20.5822 1.35421C20.5091 1.53057 20.3848 1.68093 20.2253 1.78584C20.0658 1.89075 19.8785 1.94537 19.6876 1.94264ZM36.7501 32.992C36.5181 33.4012 36.4396 33.8796 36.5286 34.3415C36.6176 34.8033 36.8683 35.2184 37.2357 35.512L21.5929 44.6995C21.5326 44.2364 21.3066 43.8109 20.9567 43.5016C20.6068 43.1923 20.1567 43.0203 19.6897 43.0173C19.2228 43.0203 18.7727 43.1923 18.4228 43.5016C18.0729 43.8109 17.8469 44.2364 17.7866 44.6995L2.13944 35.512C2.50559 35.2179 2.75509 34.803 2.84327 34.3417C2.93144 33.8803 2.85254 33.4027 2.62068 32.9942C2.39433 32.5878 2.02713 32.2783 1.58832 32.124C1.14951 31.9697 0.669397 31.9812 0.238498 32.1564V13.7814C0.668881 13.9562 1.14829 13.9677 1.58658 13.8138C2.02487 13.6599 2.39184 13.3512 2.6185 12.9458C2.85048 12.5383 2.93011 12.0616 2.84316 11.6008C2.75621 11.14 2.50835 10.7251 2.14381 10.4301L17.7866 1.24264C17.8469 1.70572 18.0729 2.13128 18.4228 2.44055C18.7727 2.74982 19.2228 2.92186 19.6897 2.92483C20.1571 2.92179 20.6074 2.74944 20.9573 2.43973C21.3073 2.13001 21.5331 1.70393 21.5929 1.24046L37.2401 10.428C36.8744 10.722 36.6253 11.1365 36.5371 11.5973C36.449 12.0582 36.5275 12.5353 36.7588 12.9436C36.9852 13.35 37.3524 13.6595 37.7912 13.8138C38.23 13.9681 38.7101 13.9566 39.141 13.7814V32.1455C38.7082 31.9701 38.2261 31.9594 37.786 32.1154C37.3458 32.2714 36.978 32.5832 36.7522 32.992H36.7501ZM23.3801 30.1767C21.6805 31.1758 19.67 31.5067 17.7399 31.1047C15.8099 30.7028 14.0985 29.5969 12.9391 28.0023L23.2597 21.9561L26.7772 19.8911L28.4441 18.9067L28.5404 18.8608L35.6279 14.6914C36.0654 14.4355 36.2185 13.8667 35.9691 13.4205C35.9119 13.3134 35.8334 13.2191 35.7384 13.1435C35.6434 13.0678 35.5339 13.0125 35.4167 12.9807C35.2995 12.9489 35.1771 12.9415 35.0569 12.9588C34.9367 12.9761 34.8213 13.0178 34.7179 13.0814L29.5072 16.1548C28.5164 14.6728 27.2151 13.424 25.6937 12.4948C24.1722 11.5656 22.467 10.9783 20.696 10.7736V4.80389C20.6972 4.67865 20.6736 4.55439 20.6268 4.43824C20.5799 4.32208 20.5106 4.21629 20.4228 4.12692C20.3351 4.03754 20.2306 3.96632 20.1153 3.91733C20 3.86834 19.8762 3.84254 19.751 3.84139C19.6256 3.84225 19.5015 3.86784 19.386 3.91671C19.2705 3.96557 19.1657 4.03674 19.0777 4.12615C18.9897 4.21555 18.9203 4.32144 18.8733 4.43774C18.8263 4.55403 18.8027 4.67846 18.8038 4.80389V10.7189C16.8598 10.8141 14.9681 11.3801 13.2913 12.3683C11.778 13.2553 10.4702 14.4535 9.45443 15.8836L4.67693 13.0814C4.57285 13.0204 4.45765 12.9809 4.33807 12.9651C4.2185 12.9493 4.09697 12.9575 3.98062 12.9893C3.86427 13.0211 3.75544 13.0758 3.66052 13.1502C3.5656 13.2246 3.48651 13.3172 3.42787 13.4226C3.30739 13.6361 3.27495 13.8881 3.33746 14.125C3.39997 14.362 3.55249 14.5652 3.76256 14.6914L8.50287 17.4783C7.48888 19.511 7.04296 21.7799 7.21225 24.0451L7.65194 26.5476C7.84881 27.2258 8.096 27.8864 8.39787 28.523L3.76256 31.2464C3.5511 31.373 3.3978 31.5776 3.33561 31.8161C3.27343 32.0546 3.30735 32.308 3.43006 32.5217C3.4893 32.6271 3.56895 32.7196 3.66434 32.7938C3.75974 32.8681 3.86897 32.9226 3.98566 32.9541C4.10235 32.9857 4.22416 32.9937 4.34398 32.9777C4.46379 32.9616 4.57921 32.9219 4.6835 32.8608L9.33631 30.1351C10.401 31.69 11.8068 32.981 13.4465 33.9099C15.0861 34.8387 16.9163 35.3807 18.7972 35.4945V41.1339C18.7972 41.6655 19.2216 42.0964 19.7444 42.0964C19.8697 42.0953 19.9935 42.0695 20.1088 42.0205C20.224 41.9715 20.3285 41.9003 20.4163 41.8109C20.504 41.7215 20.5733 41.6157 20.6202 41.4996C20.6671 41.3834 20.6906 41.2591 20.6894 41.1339V35.4464C22.3916 35.2715 24.0348 34.7264 25.5041 33.8495C27.1617 32.8645 28.5604 31.4981 29.5838 29.8639L34.696 32.8564C35.1335 33.1058 35.6847 32.9505 35.9363 32.5086C36.0578 32.2965 36.0919 32.0454 36.0314 31.8086C35.971 31.5718 35.8208 31.3678 35.6126 31.2398L30.4676 28.2211C30.4807 28.1926 30.5113 28.1598 30.5113 28.1248C32.0732 24.5286 27.8929 22.9842 26.9632 25.7536C26.3422 27.6129 25.0685 29.1843 23.3779 30.1767H23.3801ZM38.8938 33.1451C39.1136 33.2773 39.2732 33.49 39.3386 33.7379C39.4039 33.9859 39.3699 34.2497 39.2438 34.473C39.1825 34.5829 39.0998 34.6794 39.0007 34.7569C38.9015 34.8344 38.7879 34.8914 38.6665 34.9244C38.545 34.9574 38.4182 34.9658 38.2935 34.9491C38.1687 34.9325 38.0486 34.8911 37.9401 34.8273C37.72 34.696 37.5601 34.4837 37.4947 34.2359C37.4292 33.9881 37.4635 33.7246 37.5901 33.5017C37.6512 33.3916 37.7337 33.2949 37.8328 33.2171C37.9318 33.1394 38.0454 33.0822 38.1669 33.049C38.2883 33.0158 38.4152 33.0072 38.5401 33.0237C38.6649 33.0402 38.7852 33.0815 38.8938 33.1451ZM11.5588 24.253C11.4647 20.6064 11.8979 18.0623 15.3519 16.0323C16.7467 15.2114 18.3595 14.8376 19.9733 14.9612C21.587 15.0848 23.1241 15.6998 24.3776 16.7236L11.5588 24.253Z" fill="current"/>
</svg>
