<svg width="63" height="63" viewBox="0 0 63 63" fill="current" xmlns="http://www.w3.org/2000/svg">
<g clip-path="url(#clip0_292_590)">
<path d="M31.5 63C48.897 63 63 48.897 63 31.5C63 14.103 48.897 0 31.5 0C14.103 0 0 14.103 0 31.5C0 48.897 14.103 63 31.5 63Z" fill="#0093FF"/>
<path d="M31.4981 50.4235C31.9706 50.4255 32.3545 50.8173 32.3565 51.2976C32.3586 51.527 32.2696 51.7479 32.109 51.9118C31.9485 52.0757 31.7295 52.1692 31.5001 52.1718C31.3863 52.1707 31.2739 52.1473 31.1691 52.1028C31.0644 52.0583 30.9695 51.9937 30.8898 51.9125C30.8101 51.8313 30.7472 51.7352 30.7046 51.6297C30.662 51.5242 30.6406 51.4114 30.6417 51.2976C30.6406 51.1839 30.662 51.071 30.7046 50.9655C30.7472 50.86 30.8101 50.764 30.8898 50.6828C30.9695 50.6016 31.0644 50.5369 31.1691 50.4925C31.2739 50.448 31.3863 50.4245 31.5001 50.4235H31.4981ZM14.2125 22.3609C14.0136 22.242 13.8692 22.0499 13.8103 21.8257C13.7514 21.6016 13.7827 21.3633 13.8975 21.162C13.9817 21.0122 14.1089 20.8912 14.2627 20.8145C14.4165 20.7379 14.5897 20.7092 14.76 20.7321C14.9303 20.755 15.0898 20.8284 15.2179 20.943C15.346 21.0576 15.4367 21.2079 15.4784 21.3746C15.5226 21.5419 15.517 21.7185 15.462 21.8825C15.4071 22.0466 15.3053 22.191 15.1693 22.2979C15.0346 22.4035 14.8713 22.4659 14.7006 22.4771C14.5299 22.4884 14.3598 22.4479 14.2125 22.3609ZM14.2125 40.6585C14.3104 40.6018 14.4186 40.565 14.5308 40.5505C14.6431 40.5359 14.7571 40.5438 14.8662 40.5736C14.9754 40.6035 15.0776 40.6547 15.1668 40.7244C15.2559 40.7941 15.3304 40.8807 15.3858 40.9794C15.4998 41.18 15.5306 41.4172 15.4717 41.6402C15.4128 41.8632 15.2689 42.0543 15.0708 42.1725C14.973 42.2298 14.8648 42.2669 14.7525 42.2818C14.6401 42.2966 14.5259 42.2889 14.4166 42.259C14.3073 42.2291 14.2051 42.1776 14.1159 42.1077C14.0268 42.0377 13.9525 41.9506 13.8975 41.8516C13.7835 41.651 13.7527 41.4138 13.8116 41.1908C13.8705 40.9678 14.0144 40.7767 14.2125 40.6585ZM48.7837 22.3609C48.6858 22.4177 48.5776 22.4544 48.4653 22.469C48.3531 22.4836 48.2391 22.4757 48.1299 22.4458C48.0208 22.416 47.9186 22.3647 47.8294 22.2951C47.7402 22.2254 47.6658 22.1387 47.6103 22.04C47.5241 21.8895 47.4838 21.7171 47.4943 21.544C47.5048 21.3708 47.5656 21.2045 47.6694 21.0655C47.7718 20.9277 47.9134 20.8239 48.0756 20.7677C48.2378 20.7116 48.4133 20.7056 48.579 20.7505C48.7455 20.7976 48.8945 20.8926 49.0074 21.0237C49.1203 21.1549 49.1922 21.3163 49.214 21.488C49.2358 21.6597 49.2067 21.834 49.1301 21.9892C49.0536 22.1444 48.9332 22.2737 48.7837 22.3609ZM31.5001 12.5763C31.2727 12.5706 31.0567 12.4757 30.8987 12.3122C30.7407 12.1487 30.6533 11.9295 30.6555 11.7021C30.6555 11.3478 30.8681 11.0269 31.189 10.893C31.3471 10.8272 31.5214 10.8108 31.689 10.8459C31.8566 10.8811 32.0097 10.9661 32.1281 11.0899C32.2478 11.2146 32.3283 11.3717 32.3598 11.5418C32.3913 11.7118 32.3723 11.8873 32.3053 12.0467C32.2395 12.2054 32.1276 12.3407 31.984 12.4351C31.8404 12.5296 31.6719 12.5787 31.5001 12.5763ZM46.8563 40.5207C46.6475 40.889 46.5769 41.3196 46.657 41.7352C46.7371 42.1509 46.9627 42.5244 47.2934 42.7887L33.2148 51.0574C33.1606 50.6407 32.9572 50.2577 32.6423 49.9793C32.3274 49.701 31.9223 49.5462 31.502 49.5435C31.0817 49.5462 30.6767 49.701 30.3618 49.9793C30.0469 50.2577 29.8435 50.6407 29.7892 51.0574L15.7067 42.7887C16.0363 42.524 16.2608 42.1506 16.3402 41.7354C16.4195 41.3202 16.3485 40.8903 16.1399 40.5227C15.9361 40.1569 15.6057 39.8784 15.2107 39.7395C14.8158 39.6006 14.3837 39.6109 13.9959 39.7686V23.2311C14.3832 23.3884 14.8147 23.3988 15.2092 23.2603C15.6036 23.1218 15.9339 22.844 16.1379 22.4791C16.3467 22.1123 16.4183 21.6833 16.3401 21.2686C16.2618 20.8539 16.0388 20.4805 15.7107 20.215L29.7892 11.9463C29.8435 12.363 30.0469 12.746 30.3618 13.0244C30.6767 13.3027 31.0817 13.4576 31.502 13.4602C31.9226 13.4575 32.3279 13.3024 32.6429 13.0236C32.9578 12.7449 33.161 12.3614 33.2148 11.9443L47.2973 20.213C46.9683 20.4777 46.744 20.8507 46.6647 21.2655C46.5853 21.6802 46.656 22.1097 46.8642 22.4771C47.0679 22.8428 47.3984 23.1214 47.7933 23.2603C48.1882 23.3992 48.6203 23.3888 49.0081 23.2311V39.7588C48.6186 39.601 48.1848 39.5913 47.7886 39.7317C47.3925 39.8721 47.0615 40.1528 46.8583 40.5207H46.8563ZM34.8233 37.9869C33.2937 38.8861 31.4842 39.1839 29.7472 38.8221C28.0101 38.4604 26.4699 37.465 25.4265 36.03L34.715 30.5884L37.8808 28.7299L39.381 27.8439L39.4676 27.8026L45.8463 24.0501C46.2401 23.8198 46.3779 23.3079 46.1535 22.9063C46.102 22.8099 46.0313 22.7251 45.9458 22.657C45.8603 22.5889 45.7618 22.5391 45.6563 22.5105C45.5508 22.4819 45.4406 22.4752 45.3325 22.4908C45.2243 22.5064 45.1205 22.5439 45.0273 22.6011L40.3378 25.3672C39.446 24.0334 38.2749 22.9095 36.9056 22.0732C35.5363 21.2369 34.0015 20.7084 32.4076 20.5241V15.1514C32.4087 15.0387 32.3875 14.9268 32.3453 14.8223C32.3032 14.7178 32.2408 14.6225 32.1618 14.5421C32.0828 14.4617 31.9888 14.3976 31.885 14.3535C31.7813 14.3094 31.6699 14.2862 31.5571 14.2851C31.4443 14.2859 31.3326 14.3089 31.2287 14.3529C31.1247 14.3969 31.0304 14.4609 30.9512 14.5414C30.872 14.6219 30.8095 14.7172 30.7672 14.8218C30.7249 14.9265 30.7036 15.0385 30.7047 15.1514V20.4749C28.9551 20.5606 27.2526 21.07 25.7434 21.9593C24.3814 22.7576 23.2044 23.836 22.2902 25.1231L17.9905 22.6011C17.8968 22.5463 17.7931 22.5107 17.6855 22.4965C17.5779 22.4822 17.4685 22.4896 17.3638 22.5182C17.2591 22.5468 17.1611 22.5961 17.0757 22.6631C16.9903 22.73 16.9191 22.8134 16.8663 22.9083C16.7579 23.1003 16.7287 23.3271 16.785 23.5404C16.8412 23.7537 16.9785 23.9365 17.1676 24.0501L21.4338 26.5583C20.5212 28.3878 20.1199 30.4298 20.2723 32.4685L20.668 34.7208C20.8452 35.3311 21.0676 35.9256 21.3393 36.4985L17.1676 38.9496C16.9772 39.0636 16.8393 39.2477 16.7833 39.4624C16.7273 39.677 16.7579 39.905 16.8683 40.0974C16.9216 40.1922 16.9933 40.2755 17.0792 40.3423C17.165 40.4092 17.2633 40.4582 17.3683 40.4866C17.4734 40.515 17.583 40.5222 17.6908 40.5078C17.7987 40.4934 17.9025 40.4576 17.9964 40.4026L22.1839 37.9495C23.1422 39.3489 24.4074 40.5108 25.8831 41.3468C27.3588 42.1827 29.0059 42.6705 30.6988 42.7729V47.8484C30.6988 48.3268 31.0807 48.7146 31.5512 48.7146C31.664 48.7136 31.7754 48.6904 31.8791 48.6463C31.9829 48.6022 32.0769 48.5381 32.1559 48.4577C32.2349 48.3772 32.2972 48.282 32.3394 48.1775C32.3816 48.0729 32.4028 47.9611 32.4017 47.8484V42.7296C33.9336 42.5722 35.4126 42.0817 36.735 41.2924C38.2268 40.4059 39.4856 39.1761 40.4067 37.7054L45.0077 40.3986C45.4014 40.6231 45.8975 40.4833 46.1239 40.0856C46.2332 39.8947 46.2639 39.6688 46.2095 39.4556C46.1552 39.2425 46.02 39.0589 45.8326 38.9437L41.2021 36.2269C41.2139 36.2013 41.2414 36.1717 41.2414 36.1402C42.6471 32.9036 38.8848 31.5137 38.0481 34.0061C37.4892 35.6795 36.3429 37.0938 34.8213 37.9869H34.8233ZM48.7857 40.6585C48.9835 40.7774 49.1271 40.9688 49.186 41.192C49.2448 41.4152 49.2142 41.6526 49.1007 41.8535C49.0455 41.9524 48.9711 42.0393 48.8819 42.1091C48.7926 42.1789 48.6904 42.2301 48.5811 42.2598C48.4718 42.2895 48.3576 42.2971 48.2454 42.2821C48.1331 42.2671 48.025 42.2298 47.9273 42.1725C47.7292 42.0543 47.5853 41.8632 47.5264 41.6402C47.4676 41.4172 47.4984 41.18 47.6123 40.9794C47.6673 40.8803 47.7416 40.7933 47.8308 40.7233C47.9199 40.6533 48.0221 40.6019 48.1315 40.572C48.2408 40.5421 48.3549 40.5344 48.4673 40.5492C48.5796 40.5641 48.6879 40.6012 48.7857 40.6585ZM24.1842 32.6555C24.0995 29.3736 24.4893 27.084 27.598 25.257C28.8533 24.5182 30.3048 24.1817 31.7572 24.2929C33.2095 24.4042 34.5929 24.9577 35.7211 25.8791L24.1842 32.6555Z" fill="current"/>
</g>
<defs>
<clipPath id="clip0_292_590">
<rect width="63" height="63" fill="white"/>
</clipPath>
</defs>
</svg>
