<svg width="276" height="80" viewBox="0 0 276 80" fill="none" xmlns="http://www.w3.org/2000/svg">
<g filter="url(#filter0_f_16_8)">
<path d="M13.282 41.1298C13.282 40.8102 13.282 40.6504 13.2891 40.3784C13.547 30.5622 21.3473 21.8019 31.0679 20.4114C31.3373 20.3729 31.3984 20.3658 31.5207 20.3516C53.4582 17.7995 93.0821 14.1074 138.72 14.1074C186.759 14.1074 224.053 17.6311 244.708 20.1732C244.828 20.188 244.888 20.1954 245.246 20.2521C254.658 21.7459 262.373 30.4677 262.705 39.9925C262.718 40.3541 262.718 40.5531 262.718 40.951V40.951C262.718 41.6117 262.718 41.942 262.705 42.3149C262.342 52.3807 254.347 61.0179 244.34 62.1561C243.969 62.1983 243.712 62.2182 243.198 62.2579C220.796 63.9916 181.585 66.4385 138.72 66.4385C95.4902 66.4385 55.3657 63.9497 32.6367 62.2138C32.3091 62.1888 32.1453 62.1763 31.8672 62.1475C21.6912 61.0935 13.5655 52.3236 13.2895 42.0968C13.282 41.8174 13.282 41.5882 13.282 41.1298V41.1298Z" fill="#0093FF" fill-opacity="0.3"/>
</g>
<path d="M0 21.0472C0 17.2012 0 15.2783 0.735234 13.6874C1.3711 12.3116 2.4482 11.0874 3.73184 10.2815C5.21608 9.34964 7.08451 9.10974 10.8214 8.62994C31.7639 5.941 80.9079 0.55957 138.797 0.55957C200.307 0.55957 245.898 5.79322 265.46 8.51688C269.055 9.01747 270.852 9.26776 272.318 10.2035C273.577 11.0066 274.654 12.2438 275.275 13.6008C276 15.1818 276 17.0597 276 20.8154V40.5782C276 44.6262 276 46.6502 275.222 48.2797C274.544 49.6984 273.421 50.9208 272.065 51.7168C270.508 52.6311 268.521 52.8006 264.549 53.1397C242.991 54.9796 193.592 58.6019 138.797 58.6019C83.8213 58.6019 33.3847 54.9557 11.4911 53.1216C7.49858 52.7871 5.50234 52.6198 3.94225 51.7063C2.58316 50.9104 1.45973 49.689 0.780115 48.2682C0 46.6373 0 44.608 0 40.5496V21.0472Z" fill="#0093FF"/>
<path d="M74.9107 57.1414C74.7892 53.957 71.6705 51.351 68.1588 49.4555C63.5294 46.9566 57.733 47.6251 52.9107 45.5223C49.5796 44.0697 46.2826 41.0258 44.5981 35.2047C42.9667 29.5671 38.2404 26.8326 33.072 25.6942C24.3253 23.7676 12.8072 24.5197 10.5331 15.8568C9.98023 13.7508 9.90117 11.3109 10.5792 8.5293" stroke="white" stroke-width="0.26564" stroke-linecap="square"/>
<path d="M69.332 56.8757C68.3312 54.7363 66.0323 53.806 63.4043 53.2416C58.278 52.1405 52.5573 52.9727 47.7434 50.8946C44.3995 49.4511 41.0851 46.4146 39.3943 40.5916C37.7558 34.9489 32.9978 32.2223 27.8036 31.0943C19.0798 29.1997 9.04909 28.9049 6.03079 20.5035C4.83539 17.1761 4.33459 13.3841 5.26222 9.5918" stroke="white" stroke-width="0.26564" stroke-linecap="square"/>
<path d="M201.089 57.1414C201.211 53.957 204.329 51.351 207.841 49.4555C212.471 46.9566 218.267 47.6251 223.089 45.5223C226.42 44.0697 229.717 41.0258 231.402 35.2047C233.033 29.5671 237.76 26.8326 242.928 25.6942C251.675 23.7676 263.193 24.5197 265.467 15.8568C266.02 13.7508 266.099 11.3109 265.421 8.5293" stroke="white" stroke-width="0.26564" stroke-linecap="square"/>
<path d="M206.668 56.8757C207.669 54.7363 209.968 53.806 212.596 53.2416C217.722 52.1405 223.443 52.9727 228.257 50.8946C231.6 49.4511 234.915 46.4146 236.606 40.5916C238.244 34.9489 243.002 32.2223 248.196 31.0943C256.92 29.1997 266.951 28.9049 269.969 20.5035C271.165 17.1761 271.665 13.3841 270.738 9.5918" stroke="white" stroke-width="0.26564" stroke-linecap="square"/>
<defs>
<filter id="filter0_f_16_8" x="-1.90735e-05" y="0.82542" width="276" height="78.8951" filterUnits="userSpaceOnUse" color-interpolation-filters="sRGB">
<feFlood flood-opacity="0" result="BackgroundImageFix"/>
<feBlend mode="normal" in="SourceGraphic" in2="BackgroundImageFix" result="shape"/>
<feGaussianBlur stdDeviation="6.641" result="effect1_foregroundBlur_16_8"/>
</filter>
</defs>
</svg>
