<svg width="1039" height="219" viewBox="0 0 1039 219" fill="none" xmlns="http://www.w3.org/2000/svg">
<path d="M0 77.1254C0 62.6474 0 55.4084 2.76778 49.4198C5.16149 44.2405 9.21623 39.6319 14.0485 36.5981C19.6359 33.0902 26.6696 32.1871 40.737 30.3809C119.575 20.2584 304.577 0 522.5 0C754.055 0 925.682 19.7021 999.321 29.9553C1012.85 31.8397 1019.62 32.7819 1025.14 36.3044C1029.88 39.3277 1033.93 43.9851 1036.27 49.0935C1039 55.0453 1039 62.1146 1039 76.2531V150.65C1039 165.889 1039 173.508 1036.07 179.642C1033.52 184.983 1029.29 189.585 1024.19 192.581C1018.32 196.023 1010.85 196.661 995.891 197.937C914.738 204.864 728.776 218.5 522.5 218.5C315.545 218.5 125.676 204.774 43.258 197.869C28.2283 196.61 20.7135 195.981 14.8406 192.542C9.72427 189.546 5.49514 184.947 2.93674 179.599C0 173.459 0 165.82 0 150.542V77.1254Z" fill="#0093FF"/>
<path d="M282 213C281.543 201.012 269.803 191.202 256.583 184.066C239.155 174.659 217.335 177.176 199.182 169.26C186.642 163.791 174.23 152.333 167.889 130.42C161.747 109.197 143.955 98.9027 124.499 94.6171C91.5718 87.3645 48.2119 90.1958 39.6512 57.5845C37.5699 49.6563 37.2723 40.4714 39.8248 30" stroke="white" stroke-linecap="square"/>
<path d="M261 212C257.232 203.946 248.578 200.444 238.685 198.319C219.387 194.174 197.852 197.307 179.73 189.484C167.142 184.05 154.665 172.619 148.3 150.699C142.132 129.457 124.22 119.192 104.667 114.946C71.8259 107.814 34.0653 106.704 22.703 75.0769C18.2029 62.551 16.3176 48.2762 19.8097 34" stroke="white" stroke-linecap="square"/>
<path d="M757 213C757.457 201.012 769.197 191.202 782.417 184.066C799.845 174.659 821.665 177.176 839.818 169.26C852.358 163.791 864.77 152.333 871.111 130.42C877.253 109.197 895.045 98.9027 914.501 94.6171C947.428 87.3645 990.788 90.1958 999.349 57.5845C1001.43 49.6563 1001.73 40.4714 999.175 30" stroke="white" stroke-linecap="square"/>
<path d="M778 212C781.768 203.946 790.422 200.444 800.315 198.319C819.613 194.174 841.148 197.307 859.27 189.484C871.858 184.05 884.335 172.619 890.7 150.699C896.868 129.457 914.78 119.192 934.333 114.946C967.174 107.814 1004.93 106.704 1016.3 75.0769C1020.8 62.551 1022.68 48.2762 1019.19 34" stroke="white" stroke-linecap="square"/>
</svg>
