<svg width="356" height="100" viewBox="0 0 357 130" fill="none" xmlns="http://www.w3.org/2000/svg">
<g filter="url(#filter0_f_16_8)">
<path d="M17.18 66.3285C17.18 56.8866 17.18 52.1657 19.0271 48.0893C20.5922 44.6353 23.4025 41.3597 26.5784 39.2878C30.3267 36.8424 34.7746 36.1583 43.6703 34.79C72.5561 30.3473 122.358 24.2997 179.432 24.2997C239.762 24.2997 286.992 30.1205 314.14 34.5361C322.591 35.9106 326.816 36.5979 330.526 39.0504C333.624 41.0982 336.471 44.4458 337.995 47.8321C339.82 51.8877 339.82 56.4478 339.82 65.568V76.8255C339.82 86.9622 339.82 92.0305 337.84 96.2282C336.139 99.8353 333.212 103.076 329.796 105.135C325.821 107.531 320.926 108.03 311.136 109.03C281.691 112.035 232.746 116 179.432 116C125.829 116 75.9176 111.992 45.9798 108.981C36.1289 107.99 31.2035 107.495 27.2219 105.101C23.7962 103.04 20.8707 99.8059 19.1638 96.1912C17.18 91.99 17.18 86.903 17.18 76.729V66.3285Z" fill="#0093FF" fill-opacity="0.3"/>
</g>
<path d="M0 27.6656C0 24.01 0 22.1822 0.685526 20.6381C1.27711 19.3055 2.2898 18.0943 3.49648 17.276C4.89476 16.3278 6.64008 16.0137 10.1307 15.3854C34.6136 10.9787 100.823 0.55957 179.531 0.55957C263.392 0.55957 324.376 10.7484 347.171 15.2362C350.529 15.8974 352.208 16.228 353.579 17.1805C354.751 17.9952 355.757 19.2191 356.33 20.5268C357 22.0556 357 23.8279 357 27.3726V79.7544C357 83.6687 357 85.6259 356.256 87.225C355.608 88.6154 354.529 89.831 353.225 90.6381C351.725 91.5665 349.812 91.7946 345.984 92.2507C320.479 95.2905 253.841 102.268 179.531 102.268C105.007 102.268 36.932 95.2504 11.0436 92.2247C7.2074 91.7763 5.2893 91.5521 3.78559 90.6247C2.4773 89.8177 1.39629 88.603 0.74666 87.2099C0 85.6087 0 83.6448 0 79.7172V27.6656Z" fill="#0093FF"/>
<path d="M96.8953 99.7086C96.737 94.0876 92.6449 89.4951 88.062 86.1676C82.3695 82.0345 74.1736 82.8878 68.1859 79.1955C63.964 76.5921 59.8228 71.2694 57.6867 61.2687C55.6404 51.6886 49.8293 46.8926 43.3828 44.792C32.0949 41.1138 17.6935 41.5084 14.3017 30.1312C13.029 25.8621 12.5784 20.6694 13.684 14.525" stroke="white" stroke-width="0.26564" stroke-linecap="square"/>
<path d="M89.6795 99.243C88.4258 95.6124 85.5975 93.969 82.3329 92.9705C75.6278 90.9197 67.4833 92.2643 61.4994 88.6094C57.2616 86.0211 53.0996 80.7107 50.9557 70.7082C48.9002 61.1183 43.0492 56.3352 36.5691 54.2523C25.3021 50.6307 12.5274 49.9026 8.75527 38.6851C6.56102 32.1598 5.38251 24.2738 6.80656 16.3868" stroke="white" stroke-width="0.26564" stroke-linecap="square"/>
<path d="M260.105 99.7086C260.263 94.0876 264.355 89.4951 268.938 86.1676C274.631 82.0345 282.826 82.8878 288.814 79.1955C293.036 76.5921 297.177 71.2694 299.313 61.2687C301.36 51.6886 307.171 46.8926 313.617 44.792C324.905 41.1138 339.307 41.5084 342.698 30.1312C343.971 25.8621 344.422 20.6694 343.316 14.525" stroke="white" stroke-width="0.26564" stroke-linecap="square"/>
<path d="M267.321 99.243C268.574 95.6124 271.402 93.969 274.667 92.9705C281.372 90.9197 289.517 92.2643 295.501 88.6094C299.738 86.0211 303.9 80.7107 306.044 70.7082C308.1 61.1183 313.951 56.3352 320.431 54.2523C331.698 50.6307 344.473 49.9026 348.245 38.6851C350.439 32.1598 351.617 24.2738 350.193 16.3868" stroke="white" stroke-width="0.26564" stroke-linecap="square"/>
<defs>
<filter id="filter0_f_16_8" x="3.89796" y="11.0177" width="349.204" height="118.264" filterUnits="userSpaceOnUse" color-interpolation-filters="sRGB">
<feFlood flood-opacity="0" result="BackgroundImageFix"/>
<feBlend mode="normal" in="SourceGraphic" in2="BackgroundImageFix" result="shape"/>
<feGaussianBlur stdDeviation="6.641" result="effect1_foregroundBlur_16_8"/>
</filter>
</defs>
</svg>
