<svg width="25" height="25" viewBox="0 0 25 25" fill="none" xmlns="http://www.w3.org/2000/svg">
<path d="M6.89661 6.03442H7.75867V8.62061H6.89661V6.03442Z" fill="#0093FF" fill-opacity="0.8"/>
<path d="M5.17212 9.48267H19.8272V10.3447H5.17212V9.48267Z" fill="#0093FF" fill-opacity="0.8"/>
<path d="M10.3448 5.17249H11.2069V8.62074H10.3448V5.17249Z" fill="#0093FF" fill-opacity="0.8"/>
<path d="M13.7937 3.4483H14.6558V8.62068H13.7937V3.4483Z" fill="#0093FF" fill-opacity="0.8"/>
<path d="M17.2419 6.89661H18.104V8.62073H17.2419V6.89661Z" fill="#0093FF" fill-opacity="0.8"/>
<path d="M0 14.6552H24.9998V15.5172H0V14.6552Z" fill="#0093FF" fill-opacity="0.8"/>
<path d="M0 0H24.9998V0.862064H0V0Z" fill="#0093FF" fill-opacity="0.8"/>
<path d="M19.8282 12.931H21.5524V13.793H19.8282V12.931Z" fill="#0093FF" fill-opacity="0.8"/>
<path d="M2.5863 12.931H6.03456V13.793H2.5863V12.931Z" fill="#0093FF" fill-opacity="0.8"/>
<path d="M24.1377 13.7931V1.72418H0.861938V13.7931H1.724V12.5C1.724 12.2619 1.91701 12.0689 2.15503 12.0689H6.46535C6.57965 12.0689 6.68934 12.1144 6.77015 12.1952C6.85097 12.276 6.89638 12.3857 6.89638 12.5V13.7931H18.9653V12.5C18.9653 12.2619 19.1583 12.0689 19.3963 12.0689H21.9825C22.0968 12.0689 22.2065 12.1144 22.2873 12.1952C22.3681 12.276 22.4135 12.3857 22.4135 12.5V13.7931H24.1377ZM20.6894 10.7758C20.6894 10.8901 20.644 10.9998 20.5632 11.0806C20.4824 11.1615 20.3727 11.2069 20.2584 11.2069H4.74122C4.5032 11.2069 4.31019 11.0139 4.31019 10.7758V9.05172C4.31019 8.81369 4.5032 8.62069 4.74122 8.62069H6.03432V5.60347C6.03432 5.36544 6.22732 5.17244 6.46535 5.17244H8.18948C8.30378 5.17244 8.41346 5.21785 8.49428 5.29867C8.5751 5.37948 8.62051 5.48917 8.62051 5.60347V8.62069H9.48257V4.7414C9.48257 4.50338 9.67558 4.31037 9.91361 4.31037H11.6377C11.752 4.31037 11.8617 4.35579 11.9425 4.4366C12.0234 4.51742 12.0688 4.6271 12.0688 4.7414V8.62069H12.9308V3.01728C12.9308 2.77925 13.1238 2.58625 13.3619 2.58625H15.086C15.2003 2.58625 15.31 2.63166 15.3908 2.71248C15.4716 2.79329 15.517 2.90298 15.517 3.01728V8.62069H16.3791V6.46553C16.3791 6.2275 16.5721 6.0345 16.8101 6.0345H18.5342C18.6485 6.0345 18.7582 6.07991 18.839 6.16073C18.9199 6.24155 18.9653 6.35123 18.9653 6.46553V8.62069H20.2584C20.3727 8.62069 20.4824 8.6661 20.5632 8.74692C20.644 8.82774 20.6894 8.93742 20.6894 9.05172V10.7758Z" fill="#0093FF" fill-opacity="0.8"/>
<path d="M12.5001 21.5517C11.8145 21.5525 11.157 21.8251 10.6721 22.3099C10.1874 22.7948 9.91473 23.4523 9.91394 24.1379V25H15.0863V24.1379C15.0856 23.4523 14.8129 22.7947 14.3281 22.3099C13.8432 21.8252 13.1857 21.5525 12.5001 21.5517Z" fill="#0093FF" fill-opacity="0.8"/>
<path d="M7.75831 19.3965C7.75831 20.1106 7.1793 20.6896 6.46521 20.6896C5.75113 20.6896 5.17212 20.1106 5.17212 19.3965C5.17212 18.6824 5.75113 18.1034 6.46521 18.1034C7.1793 18.1034 7.75831 18.6824 7.75831 19.3965Z" fill="#0093FF" fill-opacity="0.8"/>
<path d="M6.46546 21.5517C5.77985 21.5525 5.12232 21.8251 4.63745 22.3099C4.15273 22.7948 3.88006 23.4523 3.87927 24.1379V25H9.05165V24.1379C9.05088 23.4523 8.77822 22.7947 8.29348 22.3099C7.80857 21.8252 7.15107 21.5525 6.46546 21.5517Z" fill="#0093FF" fill-opacity="0.8"/>
<path d="M19.8281 19.3965C19.8281 20.1106 19.2491 20.6896 18.535 20.6896C17.821 20.6896 17.2419 20.1106 17.2419 19.3965C17.2419 18.6824 17.821 18.1034 18.535 18.1034C19.2491 18.1034 19.8281 18.6824 19.8281 19.3965Z" fill="#0093FF" fill-opacity="0.8"/>
<path d="M18.5353 21.5517C17.8497 21.5525 17.1921 21.8251 16.7073 22.3099C16.2226 22.7948 15.9499 23.4523 15.9491 24.1379V25H21.1215V24.1379C21.1207 23.4523 20.848 22.7947 20.3633 22.3099C19.8784 21.8252 19.2209 21.5525 18.5353 21.5517Z" fill="#0093FF" fill-opacity="0.8"/>
<path d="M13.7941 19.3965C13.7941 20.1106 13.2151 20.6896 12.501 20.6896C11.7869 20.6896 11.2079 20.1106 11.2079 19.3965C11.2079 18.6824 11.7869 18.1034 12.501 18.1034C13.2151 18.1034 13.7941 18.6824 13.7941 19.3965Z" fill="#0093FF" fill-opacity="0.8"/>
</svg>
