<svg width="29" height="25" viewBox="0 0 29 25" fill="none" xmlns="http://www.w3.org/2000/svg">
<path d="M28.3088 10.8421L27.7055 10.7468C26.5941 10.5564 25.4511 9.60384 24.8162 8.77841C24.3717 8.20704 23.5463 8.07993 22.9111 8.58795C22.2443 9.09599 21.1648 8.39749 20.8156 7.38141C20.4347 6.36532 19.8314 6.07963 19.1329 6.11155C18.4344 6.14322 17.9263 6.61959 17.2278 7.82591C16.5293 9.03244 15.8308 8.6832 15.2275 8.30206C14.6242 7.92113 14.021 8.01636 13.2272 9.09579C12.4335 10.1752 11.3858 10.4928 9.92542 10.8102V11.0006L10.0206 11.4134H11.799L10.8465 12.4931V14.4298H11.8307L11.545 14.7155C11.545 14.7155 11.2274 15.0331 10.8781 15.6045C10.8464 15.668 10.7512 15.7949 10.7512 15.8585C10.7829 15.8902 10.8464 15.8902 10.91 15.9221C11.0688 15.9856 11.2909 16.0809 11.6085 16.2713C12.4975 16.811 12.4022 17.8271 12.4022 17.9857L12.4339 24.8436L17.0694 24.78V20.4621V20.4304C17.0694 19.3827 17.9267 18.5253 18.9745 18.5253C20.0223 18.5253 20.9112 19.3826 20.9112 20.4304V20.4621V24.7164L28.2454 24.6212L28.3088 10.8421Z" fill="#0093FF" fill-opacity="0.8"/>
<path d="M12.3519 17.6846C12.3519 17.5577 12.3836 16.7004 11.717 16.2876C11.4313 16.0971 11.209 16.0335 11.0821 15.97C10.9233 15.9064 10.7964 15.8431 10.7328 15.716C10.7012 15.5891 10.7645 15.4303 10.8916 15.2079C11.0821 14.9222 11.2409 14.6682 11.3678 14.5094L10.7962 14.5097V12.1284L11.3675 11.5251H9.81176V9.81078L10.3198 9.20749H9.78009V7.84237L10.2562 7.42956H9.20851L9.14495 7.366C9.11328 7.33433 8.63691 6.73107 8.3829 5.84208C8.16055 4.98479 8.16055 4.25461 8.16055 4.22291V4.15935L8.35101 4.00056C8.19222 3.90533 7.9382 3.77821 7.68416 3.55608C7.55726 3.46085 7.46181 3.36562 7.33491 3.23849C7.08088 3.01614 6.82686 2.79401 6.63642 2.69878C6.57286 2.66711 6.50952 2.66711 6.41406 2.63522V0.984189H6.98635V0.634933H6.38305V0H6.03379V0.634933H5.46242V0.984189H6.03379V2.60336H6.00212C5.52597 2.66692 5.27194 2.92094 5.01795 3.20665C4.92272 3.30188 4.79559 3.42901 4.70036 3.52424C4.44634 3.74659 4.19232 3.87349 4.03351 3.96872L4.22397 4.12751V4.19107C4.22397 4.22274 4.22397 4.98481 4.00162 5.81024C3.77926 6.66753 3.27144 7.30247 3.23957 7.33416L3.17601 7.39772H2.12828L2.60443 7.81053V9.17565H2.06472L2.57276 9.77894V11.4933H1.0176L1.58898 12.0966V14.4778H0.985684C1.11259 14.6366 1.27138 14.8587 1.46184 15.1763C1.62063 15.4303 1.68419 15.5572 1.62063 15.716C1.58896 15.8429 1.46184 15.9065 1.27137 15.97C1.11258 16.0336 0.922117 16.1288 0.63644 16.2876C-0.0620488 16.7002 0.00150653 17.4939 0.00150653 17.6527V23.0501L12.3838 24.5423L12.3519 17.6846ZM7.30384 8.15976C7.74832 8.15976 8.09757 8.57257 8.09757 9.08038V11.2076H6.5101V9.08038C6.5101 8.54067 6.89102 8.15976 7.30384 8.15976ZM5.9068 4.54032C6.35128 4.54032 6.70054 4.95313 6.70054 5.4293V7.49291H5.11307V5.4293C5.11307 4.92126 5.49399 4.54032 5.9068 4.54032ZM4.82738 14.1287V16.8591H2.44617V14.1287V14.097C2.44617 13.4301 2.98588 12.9223 3.62084 12.9223C4.31933 12.9223 4.82738 13.462 4.82738 14.1286V14.1287ZM5.27186 9.08055V11.2078H3.68438V9.08055C3.68438 8.57251 4.03364 8.15993 4.47812 8.15993C4.9226 8.15993 5.27186 8.54086 5.27186 9.08055ZM8.54205 14.1287V16.8591H6.16084V14.1287V14.097C6.16084 13.4301 6.70056 12.9223 7.33552 12.9223C8.03401 12.9223 8.54205 13.462 8.54205 14.1286V14.1287Z" fill="#0093FF" fill-opacity="0.8"/>
</svg>
