<svg width="41" height="21" viewBox="0 0 41 21" fill="none" xmlns="http://www.w3.org/2000/svg">
<path d="M16.5388 10.6291H18.602V9.47243C18.4505 9.39348 18.3047 9.30368 18.1656 9.20419C17.9821 9.04424 17.8172 8.86433 17.6737 8.66741C17.2719 8.12915 17.055 7.47498 17.0562 6.80293V5.46701C17.4374 5.54126 17.8246 5.57824 18.2128 5.57765C19.584 5.57765 20.7703 5.13156 21.3414 4.48358C21.5692 4.73099 21.8421 4.93262 22.1456 5.07789C22.508 5.25633 22.8925 5.38547 23.2893 5.46236V6.80301C23.2887 7.72488 22.8816 8.59972 22.1767 9.19371C22.1517 9.21543 22.1253 9.2348 22.0974 9.25241L21.7611 9.47194V10.6294L23.8081 10.6291C23.8387 10.6291 23.8683 10.6274 23.8994 10.625H25.1857V5.01303C25.1857 3.68357 24.6575 2.40836 23.7174 1.4683C22.7774 0.527953 21.5022 0 20.1727 0C18.8432 0 17.568 0.527975 16.628 1.4683C15.6879 2.40836 15.1597 3.6835 15.1597 5.01303V10.625H16.446C16.4771 10.6274 16.5085 10.6291 16.5387 10.6291L16.5388 10.6291Z" fill="#0093FF" fill-opacity="0.8"/>
<path d="M4.30504 7.38554C4.47438 7.82518 4.72208 8.23077 5.03611 8.58239C5.50481 9.16056 6.20216 9.50629 6.94612 9.52973C7.6901 9.55321 8.40736 9.2521 8.91187 8.70478C8.94592 8.66751 8.97996 8.62995 9.01048 8.59267C9.32715 8.23785 9.57691 7.82903 9.7483 7.3856C10.0098 7.30636 10.239 7.14524 10.4025 6.9263C10.5657 6.70735 10.6549 6.44175 10.6563 6.16851V5.40337C10.6566 5.09668 10.475 4.81875 10.1938 4.69607V3.40064C10.2012 2.60973 9.8296 1.86277 9.19418 1.39146C8.56935 0.925703 7.80747 0.680353 7.02828 0.69444C7.02828 0.69444 6.98748 0.690918 6.91616 0.690918C6.17482 0.707059 5.45635 0.951536 4.85912 1.39146C4.22461 1.86309 3.85453 2.61033 3.86302 3.40065V4.69607C3.57981 4.81728 3.39668 5.0955 3.39697 5.40337V6.16852C3.39785 6.44175 3.48649 6.70765 3.64996 6.9269C3.81343 7.14613 4.04323 7.30696 4.30502 7.38562L4.30504 7.38554ZM6.90265 5.39657C6.29074 5.15504 5.72286 4.8322 5.72286 4.12165C5.72344 3.83757 5.8247 3.56315 6.00813 3.34689C6.19185 3.1303 6.446 2.98561 6.7257 2.93836V2.24486H7.40218V2.89757H7.40247C7.68539 2.91547 7.96009 2.99941 8.20488 3.14233L8.29997 3.19663L8.0417 3.88338L7.90582 3.80854L7.90552 3.80883C7.67279 3.66884 7.40543 3.59577 7.13369 3.59782C6.70873 3.59782 6.55905 3.82556 6.55905 4.0398C6.55905 4.29484 6.72576 4.43777 7.30363 4.67901C8.08222 4.99509 8.41536 5.39658 8.41536 6.01877H8.41565C8.41154 6.31548 8.30471 6.60133 8.11278 6.82764C7.92113 7.05421 7.657 7.20682 7.36498 7.25994V7.97722H6.68174V7.29721C6.33837 7.27696 6.00585 7.16926 5.71615 6.98436L5.63456 6.92654L5.88608 6.22952L6.02549 6.32138C6.28904 6.49425 6.59749 6.58639 6.91272 6.58669C7.30717 6.58669 7.57247 6.37596 7.57247 6.06634C7.57247 5.7843 7.37877 5.58708 6.90274 5.3966L6.90265 5.39657Z" fill="#0093FF" fill-opacity="0.8"/>
<path d="M13.2758 12.8115L13.2104 12.4047H13.2107C13.1452 11.9945 12.8864 11.6405 12.5154 11.4539L9.6918 10.0205L7.89036 14.7991L7.43018 11.9018L7.73482 11.2497V11.2494C7.74039 11.2371 7.73922 11.2224 7.73188 11.2109C7.72454 11.1995 7.71192 11.1925 7.69813 11.1922H6.35485C6.34105 11.1925 6.32843 11.1995 6.32109 11.2109C6.31346 11.2224 6.31258 11.2371 6.31787 11.2494L6.6225 11.9015L6.16232 14.7988L4.36088 10.0205L1.53757 11.4539C1.1666 11.6405 0.907752 11.9945 0.842305 12.4048L0 17.6432H11.9678L12.528 14.1631C12.6137 13.6398 12.8782 13.1623 13.2761 12.8116L13.2758 12.8115Z" fill="#0093FF" fill-opacity="0.8"/>
<path d="M21.7033 12.635C21.3538 13.0506 20.8384 13.2907 20.2952 13.2907C19.752 13.2907 19.2366 13.0506 18.8868 12.635C18.7744 12.4745 18.5531 12.4354 18.3926 12.5478C18.232 12.6602 18.193 12.8818 18.3054 13.0424C18.7882 13.6478 19.5207 14.0003 20.2949 14.0003C21.0694 14.0003 21.8017 13.6478 22.2844 13.0424C22.3971 12.8818 22.3581 12.6605 22.1975 12.5478C22.0373 12.4354 21.816 12.4745 21.7033 12.635H21.7033Z" fill="#0093FF" fill-opacity="0.8"/>
<path d="M30.9853 7.38549C31.1567 7.82895 31.4064 8.23779 31.7231 8.59257C31.7536 8.62984 31.7877 8.6674 31.8217 8.70468C32.3262 9.25203 33.0435 9.55314 33.7875 9.52963C34.5317 9.50615 35.2288 9.16042 35.6978 8.58229C36.0115 8.23069 36.2592 7.82511 36.4285 7.38543C36.6903 7.30678 36.9201 7.14595 37.0836 6.92671C37.2471 6.70748 37.3357 6.44159 37.3366 6.16833V5.40319C37.3369 5.09532 37.1538 4.8171 36.8705 4.69589V3.40046C36.8793 2.61007 36.509 1.86288 35.8744 1.39128C35.2775 0.951051 34.559 0.706287 33.8174 0.690735C33.7461 0.690735 33.7053 0.694257 33.7053 0.694257C32.9261 0.680169 32.1642 0.92552 31.5394 1.39128C30.9052 1.86379 30.5342 2.60984 30.5398 3.40046V4.69589C30.2586 4.81856 30.0769 5.09649 30.0775 5.40319V6.16833C30.079 6.44156 30.1679 6.70717 30.3311 6.92611C30.4946 7.14505 30.7238 7.30617 30.9853 7.38542L30.9853 7.38549ZM33.5864 5.39652C32.971 5.15499 32.4031 4.83215 32.4031 4.12161C32.404 3.83722 32.5055 3.56223 32.6898 3.34564C32.8738 3.12905 33.1289 2.98466 33.4094 2.93829V2.24478H34.0859V2.89749C34.368 2.91539 34.6415 2.99933 34.8851 3.14226L34.9837 3.19655L34.7219 3.8833L34.5893 3.80846V3.80876C34.3548 3.66935 34.0868 3.59657 33.8142 3.59774C33.3893 3.59774 33.2396 3.82548 33.2396 4.03973C33.2396 4.29476 33.4063 4.43769 33.9841 4.67894C34.7663 4.99502 35.0994 5.39651 35.0994 6.01869C35.095 6.31569 34.9876 6.60214 34.7954 6.82869C34.6031 7.05496 34.3378 7.20758 34.0452 7.25982V7.9771H33.3617L33.362 7.29709C33.0195 7.27743 32.6881 7.16972 32.3996 6.98423L32.318 6.92642L32.5663 6.2294L32.7092 6.32126H32.7089C32.9716 6.49383 33.2789 6.58598 33.5932 6.58657C33.9909 6.58657 34.2562 6.37584 34.2562 6.06622C34.2562 5.78418 34.0622 5.58696 33.5862 5.39648L33.5864 5.39652Z" fill="#0093FF" fill-opacity="0.8"/>
<path d="M39.5037 12.4054C39.4383 11.9951 39.1797 11.6411 38.8085 11.4545L35.9848 10.0211L34.1834 14.7994L33.7235 11.9021L34.0282 11.25C34.0334 11.2377 34.0326 11.223 34.0249 11.2116C34.0176 11.2001 34.005 11.1931 33.9912 11.1928H32.6479C32.6341 11.1931 32.6215 11.2001 32.6141 11.2116C32.6068 11.223 32.6056 11.2377 32.6112 11.25L32.9158 11.9021L32.456 14.7994L30.6545 10.0211L27.8309 11.4545H27.8306C27.4596 11.6411 27.2008 11.9951 27.1353 12.4054L27.0702 12.8121C27.4682 13.1628 27.7326 13.6403 27.8183 14.1636L28.3785 17.6437H40.3463L39.5037 12.4054Z" fill="#0093FF" fill-opacity="0.8"/>
<path d="M27.0108 14.2934C26.9368 13.8317 26.6466 13.4338 26.2298 13.2219L23.7232 11.9523L22.9604 12.3511L23.8702 13.3939C22.7579 14.245 21.5071 14.8982 20.1732 15.3256C18.8393 14.8983 17.5885 14.245 16.4761 13.3939L17.3859 12.3511L16.6232 11.9523L14.1166 13.2219C13.6998 13.4337 13.4095 13.832 13.3356 14.2934L12.7404 17.9921L12.3867 20.19H27.9593L27.6057 17.9921L27.0108 14.2934Z" fill="#0093FF" fill-opacity="0.8"/>
</svg>
