<svg width="150" height="150" viewBox="0 0 150 150" fill="none" xmlns="http://www.w3.org/2000/svg">
<path d="M134.748 15.6006C134.32 15.1302 133.801 14.7515 133.222 14.4874C132.644 14.2232 132.017 14.0791 131.382 14.0638C130.746 14.0485 130.113 14.1622 129.523 14.3982C128.932 14.6341 128.395 14.9873 127.945 15.4365L124.321 19.043C123.882 19.4825 123.635 20.0784 123.635 20.6997C123.635 21.3211 123.882 21.917 124.321 22.3565L127.643 25.6729C127.861 25.8917 128.12 26.0653 128.405 26.1838C128.69 26.3022 128.996 26.3632 129.305 26.3632C129.613 26.3632 129.919 26.3022 130.204 26.1838C130.489 26.0653 130.748 25.8917 130.966 25.6729L134.499 22.1573C136.286 20.3731 136.453 17.4668 134.748 15.6006ZM116.994 26.3672L64.1073 79.1602C63.7866 79.4795 63.5536 79.876 63.4305 80.3115L60.9842 87.5977C60.9256 87.7954 60.9215 88.0052 60.9722 88.2051C61.023 88.405 61.1267 88.5874 61.2725 88.7332C61.4183 88.879 61.6008 88.9828 61.8007 89.0335C62.0005 89.0843 62.2104 89.0801 62.4081 89.0215L69.6883 86.5752C70.1239 86.4522 70.5204 86.2191 70.8397 85.8985L123.633 33.0059C124.121 32.5122 124.395 31.8458 124.395 31.1514C124.395 30.457 124.121 29.7905 123.633 29.2969L120.718 26.3672C120.223 25.8743 119.554 25.5976 118.856 25.5976C118.158 25.5976 117.488 25.8743 116.994 26.3672Z" fill="#111111"/>
<path d="M113.186 56.7363L77.4756 92.5166C76.0954 93.9002 74.3991 94.9268 72.5332 95.5078L64.9453 98.0479C63.1445 98.5564 61.2407 98.5756 59.43 98.1034C57.6194 97.6313 55.9673 96.6848 54.6442 95.3617C53.321 94.0385 52.3746 92.3865 51.9024 90.5758C51.4303 88.7652 51.4495 86.8613 51.958 85.0605L54.498 77.4727C55.0774 75.6074 56.102 73.9111 57.4834 72.5303L93.2637 36.8145C93.5916 36.4868 93.8151 36.0693 93.9058 35.6147C93.9965 35.1601 93.9503 34.6888 93.7731 34.2604C93.5959 33.8321 93.2957 33.4659 92.9104 33.2081C92.5251 32.9504 92.072 32.8127 91.6084 32.8125H30.4688C26.1175 32.8125 21.9445 34.541 18.8678 37.6178C15.791 40.6945 14.0625 44.8675 14.0625 49.2188V119.531C14.0625 123.882 15.791 128.055 18.8678 131.132C21.9445 134.209 26.1175 135.938 30.4688 135.938H100.781C105.132 135.938 109.305 134.209 112.382 131.132C115.459 128.055 117.188 123.882 117.188 119.531V58.3916C117.187 57.928 117.05 57.4749 116.792 57.0896C116.534 56.7043 116.168 56.4041 115.74 56.2269C115.311 56.0497 114.84 56.0035 114.385 56.0942C113.931 56.1849 113.513 56.4084 113.186 56.7363Z" fill="#111111"/>
</svg>
