<svg width="150" height="150" viewBox="0 0 150 150" fill="none" xmlns="http://www.w3.org/2000/svg">
<mask id="mask0_299_1679" style="mask-type:luminance" maskUnits="userSpaceOnUse" x="11" y="20" width="128" height="110">
<path d="M137.5 96.875C137.5 114.134 123.509 128.125 106.25 128.125C100.656 128.125 95.4 126.656 90.8562 124.078C86.0442 121.351 82.0413 117.396 79.2559 112.617C76.4704 107.838 75.0019 102.406 75 96.875C75 88.85 78.025 81.5313 82.9938 76C85.9215 72.7311 89.5065 70.1172 93.5141 68.3293C97.5217 66.5415 101.862 65.6199 106.25 65.625C123.509 65.625 137.5 79.6156 137.5 96.875Z" fill="white" stroke="white" stroke-width="2.5" stroke-linecap="round" stroke-linejoin="round"/>
<path d="M106.25 37.5V65.625C101.862 65.6199 97.5217 66.5415 93.5141 68.3293C89.5065 70.1172 85.9215 72.7311 82.9938 76C77.837 81.7289 74.9887 89.1671 75 96.875C75.0019 102.406 76.4704 107.838 79.2559 112.617C82.0413 117.396 86.0442 121.351 90.8562 124.078C82.5375 126.594 71.4938 128.125 59.375 128.125C33.4875 128.125 12.5 121.128 12.5 112.5V37.5" stroke="white" stroke-width="2.5" stroke-linecap="round" stroke-linejoin="round"/>
<path d="M106.25 37.5C106.25 46.1281 85.2625 53.125 59.375 53.125C33.4875 53.125 12.5 46.1281 12.5 37.5C12.5 28.8719 33.4875 21.875 59.375 21.875C85.2625 21.875 106.25 28.8719 106.25 37.5Z" fill="white" stroke="white" stroke-width="2.5" stroke-linecap="round" stroke-linejoin="round"/>
<path d="M12.5 87.5C12.5 96.1281 33.4875 103.125 59.375 103.125C65.0219 103.125 70.4375 102.794 75.45 102.181M12.5 62.5C12.5 71.1281 33.4875 78.125 59.375 78.125C67.9875 78.125 76.0594 77.35 82.9938 76" stroke="white" stroke-width="2.5" stroke-linecap="round" stroke-linejoin="round"/>
<path d="M120.312 90.625L103.125 107.812L93.75 98.4375" stroke="black" stroke-width="2.5" stroke-linecap="round" stroke-linejoin="round"/>
</mask>
<g mask="url(#mask0_299_1679)">
<path d="M0 0H150V150H0V0Z" fill="#111111"/>
</g>
</svg>
