<svg width="22" height="32" viewBox="0 0 22 32" fill="none" xmlns="http://www.w3.org/2000/svg">
<path d="M5.54969 1.47207C8.98304 -0.522854 13.2032 -0.487986 16.6043 1.56341C19.972 3.65658 22.0188 7.39227 21.9999 11.4108C21.9214 15.403 19.7266 19.1557 16.9832 22.0567C15.3997 23.7386 13.6284 25.2259 11.7053 26.4881C11.5073 26.6026 11.2903 26.6792 11.0652 26.7143C10.8485 26.7051 10.6375 26.641 10.4512 26.528C7.51524 24.6315 4.93953 22.2106 2.84795 19.3819C1.09778 17.0207 0.103454 14.168 0 11.2112L0.00783549 10.7811C0.150735 6.92158 2.23896 3.39574 5.54969 1.47207ZM12.4257 7.91179C11.03 7.31851 9.42078 7.64083 8.3495 8.72826C7.27822 9.81568 6.95615 11.4537 7.53369 12.8775C8.11122 14.3013 9.47443 15.23 10.9868 15.23C11.9776 15.2372 12.93 14.8403 13.6318 14.1279C14.3337 13.4155 14.7266 12.4467 14.7231 11.4375C14.7284 9.89691 13.8214 8.50506 12.4257 7.91179Z" fill="white"/>
<path d="M10.9997 31.428C15.3391 31.428 18.8569 30.7245 18.8569 29.8566C18.8569 28.9887 15.3391 28.2852 10.9997 28.2852C6.66034 28.2852 3.14258 28.9887 3.14258 29.8566C3.14258 30.7245 6.66034 31.428 10.9997 31.428Z" fill="#84CBFF"/>
</svg>
