<svg width="150" height="150" viewBox="0 0 150 150" fill="none" xmlns="http://www.w3.org/2000/svg">
<path d="M15 30C15 26.0218 16.5804 22.2064 19.3934 19.3934C22.2064 16.5804 26.0218 15 30 15H105C108.978 15 112.794 16.5804 115.607 19.3934C118.42 22.2064 120 26.0218 120 30V105C120 108.978 118.42 112.794 115.607 115.607C112.794 118.42 108.978 120 105 120H30C26.0218 120 22.2064 118.42 19.3934 115.607C16.5804 112.794 15 108.978 15 105V30ZM92.475 49.68C92.1043 49.3552 91.6732 49.1066 91.2064 48.9485C90.7396 48.7904 90.2462 48.7259 89.7544 48.7586C89.2627 48.7914 88.7822 48.9207 88.3404 49.1393C87.8987 49.3579 87.5043 49.6614 87.18 50.0325L63.57 77.01L51.405 64.845C51.0563 64.4963 50.6424 64.2198 50.1869 64.0311C49.7313 63.8424 49.2431 63.7453 48.75 63.7453C48.2569 63.7453 47.7687 63.8424 47.3131 64.0311C46.8576 64.2198 46.4437 64.4963 46.095 64.845C45.7463 65.1937 45.4698 65.6076 45.2811 66.0631C45.0924 66.5187 44.9953 67.0069 44.9953 67.5C44.9953 67.9931 45.0924 68.4813 45.2811 68.9369C45.4698 69.3924 45.7463 69.8063 46.095 70.155L61.095 85.155C61.4584 85.518 61.8926 85.8024 62.3705 85.9906C62.8484 86.1789 63.3599 86.2669 63.8732 86.2493C64.3865 86.2318 64.8908 86.1089 65.3547 85.8884C65.8186 85.6679 66.2322 85.3545 66.57 84.9675L92.82 54.9675C93.4737 54.2193 93.8037 53.2422 93.7376 52.2508C93.6715 51.2595 93.2222 50.3348 92.475 49.68ZM32.0025 127.5C33.3196 129.781 35.2143 131.676 37.496 132.992C39.7776 134.309 42.3657 135.001 45 135H105C112.956 135 120.587 131.839 126.213 126.213C131.839 120.587 135 112.956 135 105V45C135 42.367 134.307 39.7804 132.99 37.5002C131.674 35.22 129.78 33.3265 127.5 32.01V105C127.5 110.967 125.129 116.69 120.91 120.91C116.69 125.129 110.967 127.5 105 127.5H32.0025Z" fill="#111111"/>
</svg>
