<svg width="87" height="86" viewBox="0 0 87 86" fill="none" xmlns="http://www.w3.org/2000/svg">
<path d="M43.0001 86.0004C66.7485 86.0004 86.0003 66.7486 86.0003 43.0003C86.0003 19.2519 66.7485 0 43.0001 0C19.2518 0 0 19.2519 0 43.0003C0 66.7486 19.2518 86.0004 43.0001 86.0004Z" fill="#0093FF"/>
<path fill-rule="evenodd" clip-rule="evenodd" d="M41.2903 85.9159C41.8601 85.9553 42.4305 85.9834 43.0014 86.0001C44.0158 86.0002 45.03 85.9643 46.0419 85.8926C47.4728 85.7907 48.8978 85.6173 50.3114 85.373C51.7237 85.1296 53.123 84.8156 54.5039 84.4324C55.8855 84.0492 57.2471 83.5971 58.5836 83.0779C59.9199 82.5584 61.2295 81.9724 62.5073 81.3221C63.7844 80.6715 65.0282 79.9575 66.234 79.1828C67.4401 78.409 68.6067 77.5755 69.7296 76.6852C70.853 75.7937 71.9312 74.8465 72.9599 73.8472C73.9876 72.8479 74.9647 71.7979 75.8875 70.701C76.8124 69.6045 77.6819 68.4624 78.4926 67.2789C79.3022 66.0958 80.052 64.873 80.7394 63.615C81.4258 62.3569 82.0489 61.0653 82.6063 59.7449C83.1649 58.4242 83.657 57.0764 84.0809 55.7065C84.5042 54.3371 84.8588 52.9475 85.1433 51.5427C85.429 50.1377 85.6443 48.7193 85.7883 47.2928C85.9309 45.8663 86.0021 44.4336 86.0015 43C85.9926 42.4131 85.9717 41.8265 85.9388 41.2405L64.9852 20.2887L59.9918 18.291L59.3289 19.9573L60.3072 20.9373C58.1769 21.5823 53.2283 23.116 47.1599 25.4362C45.4685 26.083 43.7969 26.7746 42.1808 27.4733L36.7305 22.0213L34.9389 20.2296H33.1472V22.0213H31.3555V23.813L33.1472 25.6046L37.3218 29.7792C37.0781 29.91 36.8058 30.0372 36.5729 30.168C35.1109 30.985 33.8764 31.7984 32.9591 32.6351C32.0399 33.4719 31.3555 34.3641 31.3555 35.4588C31.3555 35.7025 31.3985 35.9318 31.4612 36.1558C31.4738 36.2024 31.4899 36.2489 31.506 36.2955L27.8779 32.6656C27.6292 32.4155 27.3335 32.217 27.0079 32.0814C26.6823 31.9459 26.3332 31.8759 25.9805 31.8755C24.5059 31.8755 23.293 33.0902 23.293 34.563C23.293 35.2994 23.5976 35.9712 24.0831 36.4604L44.9041 57.2796C44.1588 57.5627 43.4493 57.8601 42.6968 58.1306C42.3904 58.2417 42.1002 58.3295 41.7938 58.4388L33.1472 49.7922L31.3555 48.0005H29.5638V49.7922H27.7722V51.5839L29.5638 53.3755L36.4546 60.2663C30.9882 62.0472 26.6362 63.262 26.6362 63.262L26.7975 63.8353L22.5029 59.5407C22.2541 59.2906 21.9585 59.0921 21.6329 58.9565C21.3073 58.8209 20.9582 58.751 20.6055 58.7506C19.1309 58.7506 17.918 59.9653 17.918 61.4381C17.918 62.1745 18.2226 62.8463 18.7081 63.3355L41.2903 85.9159Z" fill="#1F212A"/>
<path fill-rule="evenodd" clip-rule="evenodd" d="M59.9936 18.291L59.3307 19.9573L61.1313 20.6775C59.431 21.1882 53.7568 22.9153 47.1616 25.4362C43.3328 26.9 39.4987 28.5322 36.5729 30.1662C35.1109 30.985 33.8764 31.7966 32.9591 32.6351C32.0399 33.4719 31.3555 34.3641 31.3555 35.4588C31.3555 36.5034 31.9862 37.3687 32.8247 38.08C33.6632 38.7913 34.774 39.413 36.073 40.0186C38.6709 41.2316 42.0464 42.3532 45.4058 43.473C48.7652 44.5928 52.1085 45.7108 54.5487 46.8485C55.7688 47.4182 56.7596 48.0005 57.3903 48.5362C58.021 49.0702 58.2306 49.493 58.2306 49.7922C58.2306 50.0162 57.9511 50.5877 57.1556 51.2721C56.3619 51.9565 55.1489 52.7252 53.6708 53.5046C50.7163 55.0633 46.7084 56.683 42.6968 58.1306C34.6755 61.0278 26.6345 63.262 26.6345 63.262L27.1182 64.9856C27.1182 64.9856 35.2022 62.7406 43.306 59.8148C47.3569 58.351 51.4115 56.7224 54.5039 55.0902C56.0501 54.275 57.3563 53.4598 58.3256 52.6266C59.2931 51.7935 60.0223 50.912 60.0223 49.7922C60.0223 48.7477 59.3916 47.8787 58.5531 47.1674C57.7146 46.4561 56.6038 45.8362 55.3048 45.2288C52.7069 44.0159 49.3314 42.8943 45.972 41.7745C42.6126 40.6547 39.2693 39.5367 36.8291 38.399C35.6089 37.8292 34.6181 37.2469 33.9875 36.7112C33.3568 36.1773 33.1472 35.758 33.1472 35.4588C33.1472 35.2098 33.4141 34.6436 34.1613 33.961C34.9102 33.2802 36.0551 32.5097 37.4472 31.7321C40.2332 30.1752 44.0137 28.5609 47.7995 27.1132C54.8408 24.4203 61.3427 22.4728 62.2977 22.1897L61.3284 24.6138L62.9947 25.2785L64.987 20.2887L59.9936 18.291ZM33.1472 20.2296V22.0213H31.3555V23.813H33.1472V25.6046H34.9389V23.813H36.7305V22.0213H34.9389V20.2296H33.1472ZM25.9805 31.8755C24.5059 31.8755 23.293 33.0902 23.293 34.563C23.293 36.0375 24.5059 37.2505 25.9805 37.2505C27.455 37.2505 28.668 36.0375 28.668 34.563C28.668 33.0902 27.455 31.8755 25.9805 31.8755ZM25.9805 33.6672C26.4857 33.6672 26.8763 34.0577 26.8763 34.563C26.8763 35.0682 26.4857 35.4588 25.9805 35.4588C25.8624 35.4605 25.7451 35.4385 25.6357 35.3941C25.5262 35.3497 25.4268 35.2837 25.3433 35.2002C25.2598 35.1167 25.1938 35.0172 25.1494 34.9078C25.105 34.7983 25.083 34.6811 25.0847 34.563C25.0847 34.0577 25.4752 33.6672 25.9805 33.6672ZM55.5431 34.563V36.3547H53.7514V38.1463H55.5431V39.938H57.3348V38.1463H59.1264V36.3547H57.3348V34.563H55.5431ZM29.5638 48.0005V49.7922H27.7722V51.5839H29.5638V53.3756H31.3555V51.5839H33.1472V49.7922H31.3555V48.0005H29.5638ZM65.3973 48.0005C63.9227 48.0005 62.7098 49.2153 62.7098 50.688C62.7098 52.1626 63.9227 53.3756 65.3973 53.3756C66.8718 53.3756 68.0848 52.1626 68.0848 50.688C68.0848 49.2153 66.8718 48.0005 65.3973 48.0005ZM65.3973 49.7922C65.9025 49.7922 66.2931 50.1828 66.2931 50.688C66.2931 51.1933 65.9025 51.5839 65.3973 51.5839C65.2792 51.5856 65.1619 51.5635 65.0525 51.5191C64.943 51.4747 64.8436 51.4088 64.7601 51.3253C64.6766 51.2417 64.6106 51.1423 64.5662 51.0329C64.5218 50.9234 64.4998 50.8062 64.5015 50.688C64.5015 50.1828 64.892 49.7922 65.3973 49.7922ZM20.6055 58.7506C19.1309 58.7506 17.918 59.9653 17.918 61.4381C17.918 62.9126 19.1309 64.1256 20.6055 64.1256C22.08 64.1256 23.293 62.9126 23.293 61.4381C23.293 59.9653 22.08 58.7506 20.6055 58.7506ZM20.6055 60.5422C21.1107 60.5422 21.5013 60.9328 21.5013 61.4381C21.5013 61.9433 21.1107 62.3339 20.6055 62.3339C20.4874 62.3356 20.3701 62.3136 20.2607 62.2692C20.1512 62.2247 20.0518 62.1588 19.9683 62.0753C19.8847 61.9918 19.8188 61.8923 19.7744 61.7829C19.73 61.6734 19.708 61.5562 19.7096 61.4381C19.7096 60.9328 20.1002 60.5422 20.6055 60.5422ZM49.2722 62.3339V64.1256H47.4806V65.9173H49.2722V67.7089H51.0639V65.9173H52.8556V64.1256H51.0639V62.3339H49.2722Z" fill="white"/>
</svg>
