<svg width="21" height="19" viewBox="0 0 21 19" fill="none" xmlns="http://www.w3.org/2000/svg">
<path d="M18.8334 15.2288C19.2347 15.229 19.6205 15.3836 19.9109 15.6605C20.2013 15.9374 20.3741 16.3155 20.3933 16.7163C20.4126 17.1171 20.277 17.5099 20.0145 17.8134C19.752 18.1169 19.3828 18.3078 18.9834 18.3465L18.8334 18.3538H2.16675C1.76548 18.3536 1.37967 18.1991 1.08926 17.9222C0.798854 17.6453 0.626111 17.2672 0.606827 16.8664C0.587543 16.4656 0.723198 16.0728 0.985681 15.7693C1.24816 15.4657 1.61735 15.2749 2.01675 15.2361L2.16675 15.2288H18.8334ZM18.8334 7.93717C19.2478 7.93718 19.6452 8.10179 19.9383 8.39482C20.2313 8.68785 20.3959 9.08527 20.3959 9.49967C20.3959 9.91408 20.2313 10.3115 19.9383 10.6045C19.6452 10.8976 19.2478 11.0622 18.8334 11.0622H2.16675C1.75235 11.0622 1.35492 10.8976 1.06189 10.6045C0.768868 10.3115 0.604248 9.91408 0.604248 9.49967C0.604248 9.08527 0.768868 8.68785 1.06189 8.39482C1.35492 8.10179 1.75235 7.93718 2.16675 7.93717H18.8334ZM18.8334 0.645508C19.2478 0.645508 19.6452 0.810128 19.9383 1.10315C20.2313 1.39618 20.3959 1.79361 20.3959 2.20801C20.3959 2.62241 20.2313 3.01984 19.9383 3.31286C19.6452 3.60589 19.2478 3.77051 18.8334 3.77051H2.16675C1.75235 3.77051 1.35492 3.60589 1.06189 3.31286C0.768868 3.01984 0.604248 2.62241 0.604248 2.20801C0.604248 1.79361 0.768868 1.39618 1.06189 1.10315C1.35492 0.810128 1.75235 0.645508 2.16675 0.645508H18.8334Z" fill="#0093FF"/>
</svg>
